<svg width="430" height="481" viewBox="0 0 430 481" fill="none" xmlns="http://www.w3.org/2000/svg">
<path d="M258.841 1.14825C259.553 1.22664 260.266 1.30503 261 1.3858C265.559 1.93784 269.807 2.76421 274.153 4.27325C277.801 8.92654 277.864 14.7374 278.431 20.4451C278.835 23.3562 278.835 23.3562 280.962 24.4529C281.685 24.7236 282.408 24.9943 283.153 25.2733C284.564 26.3536 285.939 27.4816 287.278 28.6483C287.962 29.2335 288.645 29.8187 289.349 30.4217C292.167 33.3136 293.086 35.2297 293.349 39.2889C293.314 40.8899 293.314 40.8899 293.278 42.5233C293.26 43.6009 293.242 44.6786 293.224 45.7889C293.189 47.0186 293.189 47.0186 293.153 48.2733C291.833 48.6033 290.513 48.9333 289.153 49.2733C289.813 50.9233 290.473 52.5733 291.153 54.2733C294.124 53.931 294.124 53.931 297.153 53.2733C299.384 48.8129 298.646 43.8946 297.247 39.2928C294.365 32.0047 290.691 26.2055 285.474 20.4061C280.427 14.7793 280.427 14.7793 280.153 10.2733C282.673 9.34661 283.901 9.19387 286.497 10.0108C287.35 10.4132 288.204 10.8157 289.083 11.2303C290.514 11.9028 290.514 11.9028 291.974 12.5889C292.982 13.0829 293.99 13.5768 295.028 14.0858C296.06 14.5855 297.091 15.0853 298.153 15.6002C306.496 19.7432 313.89 24.475 321.153 30.2733C321.875 30.7915 322.597 31.3097 323.341 31.8436C328.71 35.8935 331.263 41.3167 334.153 47.2733C334.67 48.2645 335.187 49.2558 335.72 50.2772C346.107 71.0766 347 94.1757 340.153 116.273C330.698 143.915 315.637 168.541 296.091 190.148C295.626 190.666 295.161 191.185 294.681 191.719C293.549 192.945 292.356 194.115 291.153 195.273C290.493 195.273 289.833 195.273 289.153 195.273C288.823 196.263 288.493 197.253 288.153 198.273C284.714 201.539 280.91 204.382 277.153 207.273C276.631 207.68 276.108 208.087 275.569 208.507C243.475 233.264 202.242 242.332 163.841 252.711C100.363 267.215 100.363 267.215 54.4034 309.711C49.1064 319.802 46.0719 330.052 48.9307 341.344C53.8134 354.932 66.3398 364.126 78.7823 370.652C97.5119 378.799 117.661 375.194 136.065 368.165C158.065 359.46 177.791 347.453 197.316 334.191C201.267 331.521 205.237 328.881 209.207 326.239C213.185 323.589 217.157 320.929 221.123 318.26C251.116 298.072 251.116 298.072 266.057 289.492C268.118 288.294 270.148 287.055 272.177 285.805C298.924 269.601 333.599 265.193 364.153 271.273C369.008 272.484 373.58 274.254 378.153 276.273C379.042 276.643 379.93 277.013 380.845 277.394C403.623 287.696 416.262 311.047 425.028 333.273C432.633 354.096 430.813 374.587 421.622 394.609C409.4 418.419 390.141 437.4 368.153 452.273C367.194 452.929 366.235 453.586 365.247 454.262C344.642 467.638 320.834 478.214 296.153 480.273C295.397 480.344 294.64 480.415 293.86 480.488C277.882 481.238 261.86 475.416 249.87 464.985C247.188 462.514 244.646 459.933 242.153 457.273C241.321 456.386 240.488 455.5 239.63 454.586C226.611 439.656 220.828 423.226 221.942 403.528C223.768 384.052 237.785 368.882 252.083 356.812C271.498 342.379 295.442 337.652 319.051 341.094C330.428 343.022 340.724 347 347.81 356.492C354.913 367.496 356.565 379.416 355.153 392.273C354.302 395.962 353.025 398.993 351.153 402.273C350.753 403.004 350.352 403.735 349.939 404.488C341.262 418.798 327.181 429.702 311.153 434.273C298.531 436.672 287.998 434.03 277.153 427.273C271.422 422.738 266.981 417.801 265.855 410.279C265.716 408.163 265.686 406.081 265.716 403.961C265.722 403.216 265.728 402.471 265.734 401.704C265.963 393.625 268.128 385.973 274.153 380.273C283.082 374.48 290.501 373.411 301.153 374.273C306.577 375.863 309.466 379.414 312.153 384.273C313.965 389.709 313.863 395.255 311.966 400.648C309.229 404.612 306.779 406.765 302.153 408.211C298.571 408.285 297.001 407.367 294.153 405.273C294.341 403.461 294.341 403.461 295.153 401.273C297.716 399.523 297.716 399.523 300.153 398.273C299.476 395.18 299.476 395.18 297.153 394.023C293.095 393.009 289.16 392.968 285.153 394.273C282.192 397.194 281.699 399.558 281.653 403.648C281.75 407.461 282.054 409.896 284.466 412.898C288.922 416.836 293.1 416.672 298.821 416.617C307.168 415.756 314.283 411.726 320.63 406.41C322.153 405.273 322.153 405.273 324.153 405.273C324.429 404.709 324.705 404.144 324.989 403.562C325.766 402.035 326.584 400.529 327.442 399.047C331.251 392.209 332.404 386.724 330.642 379.043C328.67 372.969 325.071 369.321 319.653 366.023C308.088 360.24 293.089 362.796 281.189 366.58C269.61 370.525 258.452 374.826 252.278 386.023C247.088 397.648 246.938 410.753 251.032 422.801C256.264 434.339 264.759 440.602 276.091 445.586C294.744 452.409 315.898 450.227 333.978 442.765C358.825 431.091 379.377 408.924 389.153 383.273C393.232 371.565 394.458 357.793 389.153 346.273C380.008 330.137 363.75 318.693 346.044 313.332C343.396 312.797 340.846 312.463 338.153 312.273C337.384 312.205 336.614 312.137 335.821 312.066C292.03 310.105 247.572 344.273 215.716 370.773C181.35 399.031 135.59 424.447 89.6886 420.892C62.3012 418.121 37.11 405.694 18.9776 384.762C8.32411 370.922 0.911032 353.863 0.153404 336.273C0.113444 335.523 0.0734826 334.773 0.0323107 334C-0.640052 309.557 9.22567 286.078 25.462 268.109C29.162 264.21 32.9432 260.615 37.1534 257.273C37.874 256.693 38.5946 256.113 39.337 255.515C54.632 244.012 74.2834 237.829 92.4268 232.426C93.284 232.17 94.1412 231.913 95.0244 231.65C103.877 229.026 112.781 226.604 121.696 224.206C160.734 213.757 160.734 213.757 199.153 201.273C199.919 201.003 200.684 200.733 201.472 200.455C234.596 188.634 263.271 169.515 279.153 137.273C284.199 125.691 287.552 114.62 287.528 101.898C287.527 100.976 287.525 100.055 287.524 99.105C287.399 92.2076 286.472 86.4142 283.153 80.2733C282.576 79.2008 281.998 78.1283 281.403 77.0233C272.921 66.6556 262.481 62.1912 249.294 60.5506C231.995 59.023 215.737 62.8215 199.153 67.2733C199.174 67.9887 199.195 68.7041 199.216 69.4412C199.047 77.5898 196.67 82.4203 192.208 89.1443C189.242 93.6618 187.1 98.2408 185.153 103.273C184.914 103.887 184.674 104.502 184.427 105.135C177.923 122.276 176.381 140.312 174.349 158.41C174.156 160.099 174.156 160.099 173.959 161.822C173.721 163.931 173.494 166.042 173.28 168.155C172.638 173.985 171.636 178.934 169.153 184.273C164.317 188.046 159.329 189.699 153.153 189.273C146.804 187.512 142.983 183.438 139.153 178.273C140.781 177.818 142.409 177.362 144.036 176.906C146.762 176.091 149.455 175.173 152.153 174.273C152.153 168.993 152.153 163.713 152.153 158.273C144.232 155.061 144.232 155.061 136.153 152.273C137.669 148.414 139.709 146.545 143.153 144.273C146.109 143.108 149.101 142.151 152.153 141.273C151.99 140.701 151.826 140.129 151.657 139.539C150.89 136.087 151.095 132.804 151.153 129.273C150.571 129.008 149.988 128.742 149.388 128.469C147.092 127.24 145.35 125.87 143.403 124.148C142.79 123.609 142.176 123.071 141.544 122.515C141.085 122.106 140.626 121.696 140.153 121.273C143.293 116.753 146.368 114.758 151.153 112.273C151.18 110.669 151.2 109.065 151.216 107.461C151.233 106.121 151.233 106.121 151.251 104.754C151.264 102.139 151.264 102.139 150.153 99.2733C149.732 100.139 149.732 100.139 149.302 101.023C138.45 123.25 126.999 145.334 109.853 163.41C96.8646 177.187 81.5638 196.274 79.9307 215.957C80.0042 216.721 80.0777 217.486 80.1534 218.273C81.3909 219.016 81.3909 219.016 82.6534 219.773C83.8909 220.516 83.8909 220.516 85.1534 221.273C85.4659 223.961 85.4659 223.961 85.1534 226.273C81.9077 228.437 78.8625 228.746 75.0557 228.668C73.1534 228.273 73.1534 228.273 70.7159 225.898C66.348 218.56 67.0917 208.323 68.9893 200.117C74.4957 180.019 86.5567 164.605 101.216 150.273C108.53 143.105 114.784 135.991 120.153 127.273C120.787 126.269 120.787 126.269 121.433 125.245C129.504 112.285 134.975 98.4504 137.153 83.2733C136.559 83.8185 135.965 84.3638 135.353 84.9256C130.835 89.0359 126.269 93.046 121.528 96.8983C120.621 97.6511 119.713 98.4039 118.778 99.1795C116.153 101.273 116.153 101.273 113.716 102.867C109.769 105.63 108.359 107.182 107.442 112.043C107.107 115.794 107.076 119.51 107.153 123.273C103.144 124.407 101.203 124.192 97.5284 122.273C95.3086 121.07 95.3086 121.07 93.1534 120.273C91.6684 120.768 91.6684 120.768 90.1534 121.273C88.897 124.29 88.897 124.29 87.9659 127.836C87.4496 129.632 87.4496 129.632 86.9229 131.465C86.669 132.391 86.415 133.318 86.1534 134.273C81.1833 135.52 78.6848 134.791 74.1534 132.273C72.2159 129.586 72.2159 129.586 71.1534 127.273C66.8116 127.458 66.8116 127.458 63.1534 129.273C62.9779 133.748 63.2965 137.882 64.1534 142.273C58.8915 142.589 55.5988 142.172 51.1534 139.273C46.3138 134.544 44.2263 130.04 44.1222 123.23C44.669 116.163 47.8802 111.253 52.8409 106.398C57.631 102.308 62.9129 99.6072 68.492 96.7742C78.8033 91.4996 88.3691 84.9937 97.3214 77.6483C99.1534 76.2733 99.1534 76.2733 101.329 75.2733C103.506 74.3488 103.506 74.3488 104.153 71.2733C104.813 71.2733 105.473 71.2733 106.153 71.2733C106.529 70.4553 106.529 70.4553 106.911 69.6209C108.403 66.8018 110.178 64.3098 112.028 61.7108C115.967 56.1268 119.611 50.3896 123.216 44.5858C133.71 27.831 144.407 15.0974 163.966 9.46075C170.536 7.9663 177.472 7.17971 184.153 8.27325C186.705 10.323 187.976 11.9277 189.466 14.8358C192.742 19.5685 197.922 20.2913 203.278 21.2733C208.073 22.161 211.288 23.4767 214.841 26.8983C216.817 30.4737 217.428 34.2798 218.153 38.2733C222.294 38.483 222.294 38.483 226.153 37.2733C226.592 33.4994 226.583 31.8275 224.216 28.7733C223.205 27.9483 222.195 27.1233 221.153 26.2733C220.615 25.8118 220.076 25.3503 219.521 24.8748C213.367 20.1659 206.267 18.0069 198.985 15.6331C197.709 15.2152 197.709 15.2152 196.407 14.7889C195.252 14.422 195.252 14.422 194.074 14.0477C192.153 13.2733 192.153 13.2733 190.153 11.2733C190.528 8.64825 190.528 8.64825 191.153 6.27325C197.525 3.82603 203.346 2.58575 210.153 2.27325C211.243 2.2005 211.243 2.2005 212.356 2.12628C214.871 1.96811 217.385 1.86607 219.903 1.77325C220.72 1.71822 221.536 1.6632 222.378 1.6065C225.932 1.52902 228.219 1.52856 231.066 3.79669C235.153 8.41653 235.153 8.41653 235.153 11.2733C235.741 11.5556 236.329 11.8379 236.935 12.1287C238.956 13.1715 240.769 14.3172 242.653 15.5858C247.063 18.4366 251.756 20.0884 256.712 21.7693C259.153 23.2733 259.153 23.2733 260.06 26.1287C260.147 29.054 259.942 31.3286 259.216 34.1483C258.924 35.32 258.924 35.32 258.626 36.5154C258.47 37.0955 258.314 37.6756 258.153 38.2733C259.473 38.9333 260.793 39.5933 262.153 40.2733C264.049 38.6796 265.049 37.7483 265.587 35.2928C265.599 28.6438 264.109 23.9064 259.892 18.7225C253.944 12.9304 245.56 9.78765 238.153 6.27325C237.163 5.77825 237.163 5.77825 236.153 5.27325C236.466 3.33575 236.466 3.33575 237.153 1.27325C244.071 -1.03254 251.714 0.340998 258.841 1.14825ZM143.778 41.4608C139.496 46.0487 136.356 50.5711 133.376 56.0662C131.21 59.9768 128.771 63.5354 125.903 66.9608C123.852 69.1886 123.852 69.1886 124.153 72.2733C129.691 71.3421 132.68 67.426 136.153 63.2733C144.38 52.1061 144.38 52.1061 148.153 39.2733C145.86 39.0474 145.86 39.0474 143.778 41.4608Z" fill="#030203"/>
</svg>
